<?xml version="1.0" encoding="UTF-8" standalone="no" ?>
<svg width="256px" height="257px" viewBox="0 0 256 257" version="1.1" xmlns="http://www.w3.org/2000/svg" xmlns:xlink="http://www.w3.org/1999/xlink" preserveAspectRatio="xMidYMid">
    <defs>
        <linearGradient x1="49.9976632%" y1="0.70578635%" x2="49.9976632%" y2="96.9898739%" id="linearGradient-1">
            <stop stop-color="#86BBE5" offset="0%"></stop>
            <stop stop-color="#1072BA" offset="100%"></stop>
        </linearGradient>
    </defs>
    <g>
        <path d="M118.844567,256.492985 L135.958184,185.080605 C135.958184,185.080605 154.762036,183.601651 170.537552,166.311967 C160.748281,183.531224 118.844567,256.492985 118.844567,256.492985 L118.844567,256.492985 Z" ></path>
        <path d="M80.0044017,129.056396 C80.0044017,102.857772 101.237964,81.5889959 127.471802,81.5889959 C153.670426,81.5889959 174.939202,102.822558 174.939202,129.056396 C174.939202,155.255021 153.70564,176.523796 127.471802,176.523796 C101.273177,176.523796 80.0044017,155.255021 80.0044017,129.056396 L80.0044017,129.056396 Z" ></path>
        <path d="M242.795048,72.1518569 L172.333425,92.8220083 C172.333425,92.8220083 161.699037,77.2225585 138.845667,72.1518569 C158.670702,72.0462173 242.795048,72.1518569 242.795048,72.1518569 L242.795048,72.1518569 Z" ></path>
        <path d="M72.5392022,144.338927 C62.6442916,127.190096 21.9378267,56.9045392 21.9378267,56.9045392 L74.1237964,108.527098 C74.1237964,108.527098 68.7713893,119.548831 70.778542,135.324347 L72.5392022,144.338927 L72.5392022,144.338927 Z" ></path>
    </g>
</svg>
