<!DOCTYPE svg PUBLIC "-//W3C//DTD SVG 20010904//EN" "http://www.w3.org/TR/2001/REC-SVG-20010904/DTD/svg10.dtd">
<svg version="1.0" xmlns="http://www.w3.org/2000/svg" width="800px" height="800px" viewBox="0 0 8000 8000" preserveAspectRatio="xMidYMid meet">
<g id="layer1" fill="#00aef0" stroke="none">
 <path d="M3675 6659 c-133 -16 -355 -64 -365 -79 -3 -4 -27 -15 -55 -23 -81 -25 -158 -56 -164 -66 -3 -5 -41 -24 -84 -42 -43 -19 -86 -41 -95 -49 -19 -17 -107 -71 -134 -82 -10 -4 -18 -12 -18 -17 0 -5 -24 -25 -54 -45 -30 -20 -56 -39 -58 -44 -1 -4 -25 -25 -53 -47 -86 -70 -280 -273 -331 -348 -13 -19 -27 -37 -31 -39 -5 -1 -23 -26 -41 -54 -18 -28 -42 -62 -53 -75 -12 -13 -32 -45 -45 -70 -13 -26 -30 -53 -37 -61 -8 -8 -32 -50 -53 -94 -21 -43 -42 -82 -46 -85 -14 -9 -51 -112 -52 -143 -1 -27 4 -31 74 -60 41 -17 77 -34 80 -37 8 -10 62 -34 108 -49 40 -12 44 -12 62 8 11 12 20 25 20 30 0 13 71 166 80 172 4 3 24 38 45 78 21 39 42 72 47 72 5 0 7 4 3 9 -3 6 0 13 8 18 7 4 28 32 46 61 18 28 36 52 40 52 3 1 22 24 41 52 19 28 56 71 83 96 26 25 47 51 47 58 0 7 6 17 14 21 8 4 46 37 85 72 88 79 190 161 200 161 4 0 23 14 41 30 18 17 37 30 42 30 5 0 38 18 75 40 64 39 178 90 201 90 7 0 12 4 12 9 0 16 235 81 295 81 13 0 25 5 27 12 3 9 66 13 236 16 l232 4 0 174 0 174 -202 -1 c-112 -1 -234 -5 -273 -10z"/>
 <path d="M4300 5570 l0 -570 520 0 520 0 0 425 0 425 255 0 255 0 0 -140 0 -140 145 0 145 0 0 285 0 285 -920 0 -920 0 0 -570z m750 5 l0 -275 -230 0 -230 0 0 275 0 275 230 0 230 0 0 -275z"/>
 <path d="M5850 5150 l0 -150 145 0 145 0 0 150 0 150 -145 0 -145 0 0 -150z"/>
 <path d="M1810 3865 l0 -425 -275 0 -275 0 0 415 0 415 -565 0 -565 0 0 -145 0 -145 280 0 280 0 0 -700 0 -700 285 0 285 0 0 285 0 285 1535 0 1535 0 0 420 0 420 250 0 250 0 0 -420 0 -420 1495 0 1495 0 0 570 0 570 -145 0 -145 0 0 -425 0 -425 -230 0 -230 0 0 425 0 425 -695 0 -695 0 0 -425 0 -425 -280 0 -280 0 0 425 0 425 -540 0 -540 0 0 -425 0 -425 -270 0 -270 0 0 425 0 425 -845 0 -845 0 0 -425z m1120 -150 l0 -275 -275 0 -275 0 0 275 0 275 275 0 275 0 0 -275z m3570 0 l0 -275 -265 0 -265 0 0 275 0 275 265 0 265 0 0 -275z"/>
 <path d="M7475 2384 c-1 -134 -5 -208 -12 -212 -5 -4 -14 -34 -17 -67 -10 -84 -67 -319 -79 -326 -5 -4 -6 -12 -3 -18 4 -6 3 -11 -3 -11 -5 0 -16 -21 -24 -47 -28 -89 -49 -138 -60 -145 -7 -4 -7 -8 -2 -8 6 0 6 -3 0 -8 -6 -4 -26 -41 -45 -82 -18 -41 -37 -77 -42 -78 -4 -2 -5 -9 -1 -15 8 -13 -48 27 -118 85 -26 21 -52 38 -58 38 -5 0 -15 9 -21 20 -6 11 -28 31 -49 44 -21 14 -73 59 -115 100 -42 42 -81 76 -85 76 -5 0 -23 17 -41 38 -89 102 -138 157 -162 180 -16 14 -28 30 -28 37 0 6 -14 26 -31 43 -35 35 -61 76 -86 135 -9 20 -20 37 -25 37 -5 0 -6 5 -3 10 3 6 2 10 -4 10 -19 0 -44 116 -49 233 l-5 117 -173 0 -174 0 0 -143 c0 -138 14 -257 30 -257 5 0 6 -9 3 -20 -3 -11 -1 -20 5 -20 6 0 14 -10 17 -22 13 -44 59 -143 71 -153 7 -5 25 -34 40 -62 15 -29 32 -53 36 -53 5 0 22 -23 39 -50 17 -28 40 -57 52 -65 12 -8 18 -15 13 -15 -15 0 278 -309 293 -310 3 -1 40 -32 81 -70 41 -38 80 -70 87 -70 7 0 17 -8 22 -18 5 -10 30 -31 56 -47 25 -16 52 -40 60 -52 9 -13 20 -23 26 -23 6 0 45 -26 87 -58 42 -33 92 -67 110 -76 17 -9 32 -20 32 -25 0 -4 12 -14 28 -22 15 -7 46 -26 69 -41 58 -39 77 -36 113 15 16 23 34 48 40 54 6 7 8 13 4 13 -4 0 2 9 13 19 11 11 30 40 43 65 12 25 26 46 31 46 6 0 8 4 4 9 -3 6 0 13 8 18 7 4 28 42 46 83 18 41 36 77 41 80 8 6 55 112 65 147 3 13 12 29 19 35 10 11 49 125 82 238 3 14 10 27 13 30 9 7 38 129 56 235 30 184 43 431 29 553 l-7 52 -171 0 -171 0 0 -206z"/>
 </g>

</svg>